<?xml version="1.0" encoding="UTF-8" standalone="no"?>
<!-- Created with Inkscape (http://www.inkscape.org/) -->

<svg
   width="186.53064mm"
   height="150.73677mm"
   viewBox="0 0 186.53064 150.73677"
   version="1.1"
   id="svg1"
   inkscape:version="1.4.2 (ebf0e940, 2025-05-08)"
   sodipodi:docname="example.svg"
   xml:space="preserve"
   xmlns:inkscape="http://www.inkscape.org/namespaces/inkscape"
   xmlns:sodipodi="http://sodipodi.sourceforge.net/DTD/sodipodi-0.dtd"
   xmlns="http://www.w3.org/2000/svg"
   xmlns:svg="http://www.w3.org/2000/svg"><sodipodi:namedview
     id="namedview1"
     pagecolor="#ffffff"
     bordercolor="#000000"
     borderopacity="0.25"
     inkscape:showpageshadow="2"
     inkscape:pageopacity="0.0"
     inkscape:pagecheckerboard="0"
     inkscape:deskcolor="#d1d1d1"
     inkscape:document-units="mm"
     inkscape:zoom="0.7863505"
     inkscape:cx="234.6282"
     inkscape:cy="309.0225"
     inkscape:window-width="1512"
     inkscape:window-height="839"
     inkscape:window-x="0"
     inkscape:window-y="33"
     inkscape:window-maximized="0"
     inkscape:current-layer="layer1" /><defs
     id="defs1" /><g
     inkscape:label="Layer 1"
     inkscape:groupmode="layer"
     id="layer1"
     transform="translate(-11.649794,-48.206778)"><path
       style="fill:#eeaaff;stroke-width:0.264583"
       d="M 106.29295,60.653096 C 102.21637,60.233655 99.19646,48.017306 85.274158,48.209011 70.451702,48.413111 64.637088,67.311885 57.672457,67.458813 45.0468,67.725169 41.841846,46.039542 25.02602,56.308548 c -15.3174276,9.353971 8.352241,43.255601 4.784389,58.884752 -2.095147,9.1779 -19.8266847,46.00861 -18.033457,55.5725 1.006184,5.36632 5.753795,14.20168 19.015157,17.90521 9.630029,2.6894 31.091346,8.72221 36.418178,9.41764 12.909781,1.6854 56.259543,0.3755 74.139993,0.27938 12.82535,-0.0689 48.97767,-7.49274 55.91365,-24.28997 6.07031,-14.70077 -20.13413,-31.60504 -16.56134,-42.32341 3.39895,-10.19686 15.74242,-26.40885 13.24908,-36.434954 C 186.82528,66.663347 166.76222,83.690398 157.1487,76.550185 136.142,60.947952 141.56151,62.427641 128.70896,57.592393 c -8.37514,-3.150804 -15.09716,3.813742 -22.41601,3.060703 z"
       id="path1"
       sodipodi:nodetypes="sssssssssssssss" /></g></svg>
