<?xml version="1.0" encoding="UTF-8" standalone="no"?>
<!-- Created with Inkscape (http://www.inkscape.org/) -->

<svg
   width="162.4516mm"
   height="154.80128mm"
   viewBox="0 0 162.4516 154.80128"
   version="1.1"
   id="svg1"
   xml:space="preserve"
   sodipodi:docname="leaf.svg"
   inkscape:version="1.4.2 (ebf0e940, 2025-05-08)"
   xmlns:inkscape="http://www.inkscape.org/namespaces/inkscape"
   xmlns:sodipodi="http://sodipodi.sourceforge.net/DTD/sodipodi-0.dtd"
   xmlns="http://www.w3.org/2000/svg"
   xmlns:svg="http://www.w3.org/2000/svg"><sodipodi:namedview
     id="namedview1"
     pagecolor="#ffffff"
     bordercolor="#000000"
     borderopacity="0.25"
     inkscape:showpageshadow="2"
     inkscape:pageopacity="0.0"
     inkscape:pagecheckerboard="0"
     inkscape:deskcolor="#d1d1d1"
     inkscape:document-units="mm"
     inkscape:zoom="0.60261231"
     inkscape:cx="74.674877"
     inkscape:cy="406.56322"
     inkscape:window-width="1512"
     inkscape:window-height="839"
     inkscape:window-x="0"
     inkscape:window-y="33"
     inkscape:window-maximized="0"
     inkscape:current-layer="layer1" /><defs
     id="defs1" /><g
     inkscape:label="Layer 1"
     inkscape:groupmode="layer"
     id="layer1"
     transform="translate(-28.127959,-64.58615)"><path
       style="display:inline;fill:#008000;stroke:#0d4012;stroke-width:8.2;stroke-dasharray:none;stroke-opacity:1;paint-order:stroke markers fill"
       d="m 139.21349,106.2906 c -1.92204,-3.77312 -5.82392,-8.824464 -13.49424,-12.198374 -7.67032,-3.373909 -14.50513,-4.305108 -23.35577,-4.233946 -4.682665,0.03765 -12.5741,1.188554 -17.069271,3.130895 -5.994735,2.590296 -9.940971,5.037338 -13.706123,8.026425 -3.912089,3.10574 -5.472097,5.13678 -8.616611,9.32684 -7.267515,9.64126 -9.707169,18.41849 -11.969064,30.32117 -0.806384,4.43191 -4.64718,27.93459 -5.433866,30.61886 -4.197527,14.32243 -11.832493,28.62217 -11.832493,28.62217 0,0 6.075807,3.00793 10.766367,4.77582 6.619537,2.49494 19.286263,6.69481 26.789927,8.00027 12.153875,2.11449 21.906946,2.60415 31.015874,2.6067 11.42882,0.003 26.91612,-4.50358 26.91612,-4.50358 0,0 -12.37696,-4.34377 -15.78358,-13.75739 -0.93981,-2.59699 -1.82301,-9.91604 0.21064,-15.64458 2.47092,-6.96028 6.6358,-10.3439 11.40812,-14.0902 3.27648,-2.57206 12.11869,-4.89707 18.18838,-4.21396 7.7265,0.86957 14.24261,4.75394 18.94746,12.07489 5.56163,8.65412 1.78068,21.61275 1.78068,21.61275 0,0 10.07072,-3.55607 14.64179,-12.32359 2.98488,-5.72512 7.82214,-15.85236 7.86144,-26.64238 0.0429,-11.78794 -5.12396,-23.3163 -10.63625,-28.61258 -3.00863,-2.89073 -8.77061,-6.82123 -14.93098,-10.60293 -6.16037,-3.7817 -11.24314,-3.13519 -9.55253,-8.64051 0.44835,-1.45999 8.2225,-8.76116 12.24456,-12.974428 3.94833,-4.136023 11.50387,-14.578 11.50387,-14.578 0,0 -4.5745,-4.654409 -7.20478,-6.589582 -2.63028,-1.935173 -8.5769,-5.021455 -8.5769,-5.021455 0,0 -2.57784,14.072734 -4.33417,18.960818 -1.55605,4.330699 -7.95103,17.841947 -9.59175,18.580947 -1.64072,0.739 -4.26484,1.74205 -6.18687,-2.03107 z"
       id="path2-5"
       sodipodi:nodetypes="zzsssssscssscssssscssszssczcszzz" /></g></svg>
